<svg width="193" height="40" viewBox="0 0 193 40" fill="none" xmlns="http://www.w3.org/2000/svg">
<path fill-rule="evenodd" clip-rule="evenodd" d="M7.38169 0H30.1614V24.4825C31.4665 16.4146 32.5868 8.16121 33.7995 0H56.5803V40H35.0829V5.68287C33.3279 17.042 31.636 28.4699 30.0549 40H8.6683V4.26049C6.35371 16.077 4.2934 28.1412 2.03097 40H0C2.43629 26.7888 4.85956 13.5632 7.27303 0.32867C7.26299 0.169887 7.25674 0.0188754 7.38171 0" fill="#333333"/>
<path d="M188.807 21C185.188 21 183.378 24.1597 183.378 30.4763C183.378 36.8233 185.288 40 189.116 40C190.295 40 191.267 39.7723 192.037 39.3193V34.2421C192.037 31.1633 190.944 29.6257 188.757 29.6257C188.448 29.6257 188.151 29.651 187.861 29.6981V31.739C187.946 31.7239 188.091 31.7153 188.297 31.7153C188.705 31.7153 188.996 31.8524 189.166 32.1261C189.388 32.468 189.5 33.1026 189.5 34.0222V37.9091C189.432 37.926 189.34 37.9341 189.218 37.9341C187.153 37.9341 186.12 35.4464 186.12 30.4763C186.12 25.5365 187.185 23.0685 189.321 23.0685C189.644 23.0685 190.046 23.1169 190.525 23.2121V21.2212C189.98 21.0738 189.406 21 188.807 21ZM78 21.1238V39.8749H80.6108V29.8693L82.3531 34.8003H83.529L85.27 29.8693V39.8749H87.9126V30.4993V21.1238H86.6037L82.939 30.8897L79.3061 21.1238L78 21.1238ZM114.84 21.1238V39.8749H117.454V29.1899L121.884 39.8749H123.192V21.1238H120.552V31.8852L116.148 21.1238L114.84 21.1238ZM133.492 21.1238V39.8749H136.107V29.1899L140.538 39.8749H141.844V21.1238H139.204V31.8852L134.8 21.1238L133.492 21.1238ZM152.143 21.1238V39.8749H154.862V21.1238L152.143 21.1238ZM165.136 21.1238V39.8749H167.748V29.1899L172.181 39.8749H173.487V21.1238H170.848V31.8852L166.442 21.1238L165.136 21.1238ZM98.6811 21.1251L95.6839 39.8749H98.0939L98.5551 36.5489H101.268L101.756 39.8749H104.292L101.297 21.1251H98.6811ZM99.911 26.6394L100.989 34.483H98.8362L99.911 26.6394Z" fill="#333333"/>
</svg>
